<?xml version="1.0" encoding="UTF-8"?>
<svg id="Layer_1" data-name="Layer 1" xmlns="http://www.w3.org/2000/svg" viewBox="0 0 400 100">
  <defs>
    <style>
      .cls-1 {
        fill: #fff;
      }
    </style>
  </defs>
  <g>
    <path class="cls-1" d="M112.01,75.36V23.15h31.03v5.74h-24.69v17.83h21.78v5.74h-21.78v22.9h-6.34Z"/>
    <path class="cls-1" d="M147.44,75.36v-37.29h5.97v37.29h-5.97Z"/>
    <path class="cls-1" d="M173.7,76.25c-2.74,0-5.12-.41-7.16-1.23-2.04-.82-3.74-1.9-5.11-3.24-1.37-1.34-2.35-2.81-2.95-4.4l5.22-2.16c.85,1.69,2.11,3.06,3.8,4.1,1.69,1.04,3.55,1.57,5.59,1.57,2.34,0,4.3-.46,5.89-1.38,1.59-.92,2.39-2.22,2.39-3.92,0-1.54-.59-2.78-1.75-3.73-1.17-.94-2.9-1.72-5.18-2.31l-3.58-.97c-3.38-.9-6.02-2.25-7.91-4.06-1.89-1.81-2.83-3.87-2.83-6.15,0-3.53,1.16-6.28,3.47-8.24,2.31-1.96,5.76-2.95,10.33-2.95,2.19,0,4.18.32,5.97.97,1.79.65,3.33,1.55,4.62,2.72,1.29,1.17,2.24,2.55,2.83,4.14l-5.22,2.31c-.65-1.69-1.72-2.91-3.21-3.65s-3.31-1.12-5.44-1.12c-2.29,0-4.08.48-5.37,1.45-1.29.97-1.94,2.32-1.94,4.06,0,1,.53,1.93,1.6,2.8,1.07.87,2.65,1.58,4.74,2.13l3.73.97c2.44.6,4.48,1.48,6.12,2.65,1.64,1.17,2.88,2.5,3.73,3.99.85,1.49,1.27,3.08,1.27,4.77,0,2.24-.6,4.18-1.79,5.82s-2.81,2.9-4.85,3.77c-2.04.87-4.38,1.31-7.01,1.31Z"/>
    <path class="cls-1" d="M191.67,75.36V23.15h5.97v20.36c1.24-2.04,2.86-3.6,4.85-4.7,1.99-1.09,4.3-1.64,6.94-1.64,2.88,0,5.42.58,7.61,1.75,2.19,1.17,3.89,3.02,5.11,5.56,1.22,2.54,1.8,5.87,1.75,9.99v20.89h-5.97v-19.09c0-3.68-.44-6.49-1.31-8.43-.87-1.94-2.05-3.27-3.54-3.99-1.49-.72-3.18-1.08-5.07-1.08-3.28,0-5.83,1.16-7.65,3.47-1.82,2.31-2.72,5.58-2.72,9.81v19.32h-5.97Z"/>
    <path class="cls-1" d="M262.72,46.12c-1.57-2.94-3.76-5.23-6.57-6.9-2.81-1.67-6.03-2.5-9.66-2.5s-6.86.83-9.66,2.5c-.49.29-.95.59-1.39.92l.1-17h-5.97v52.21h5.68l.02-3.16c.53.4,1.07.78,1.65,1.11,2.81,1.67,6.05,2.5,9.73,2.5s6.76-.83,9.54-2.5c2.79-1.67,4.97-3.97,6.53-6.9,1.56-2.93,2.34-6.31,2.34-10.14s-.78-7.21-2.34-10.15ZM257.42,63.53c-1.07,2.12-2.54,3.77-4.41,4.97-1.86,1.19-4.02,1.79-6.45,1.79s-4.61-.6-6.53-1.79c-1.91-1.2-3.41-2.85-4.48-4.97-.09-.18-.17-.36-.25-.54-.91-1.98-1.35-4.22-1.35-6.72,0-2.62.48-4.93,1.43-6.94.05-.12.11-.25.17-.37,1.07-2.1,2.54-3.74,4.41-4.92,1.86-1.2,4.01-1.79,6.45-1.79s4.67.59,6.57,1.79c1.89,1.19,3.37,2.85,4.44,4.96,1.06,2.11,1.6,4.54,1.6,7.28s-.54,5.16-1.6,7.27Z"/>
    <path class="cls-1" d="M286.1,76.25c-3.68,0-6.92-.83-9.73-2.5-2.81-1.67-5.01-3.97-6.6-6.9-1.59-2.93-2.39-6.31-2.39-10.14s.78-7.21,2.35-10.14c1.57-2.93,3.75-5.23,6.56-6.9,2.81-1.67,6.03-2.5,9.66-2.5s6.85.83,9.66,2.5c2.81,1.67,5,3.97,6.56,6.9,1.57,2.93,2.35,6.32,2.35,10.14s-.78,7.21-2.35,10.14c-1.57,2.93-3.74,5.23-6.53,6.9-2.79,1.67-5.97,2.5-9.55,2.5ZM286.03,70.73c2.44,0,4.59-.6,6.45-1.79,1.86-1.19,3.33-2.85,4.4-4.96,1.07-2.11,1.6-4.54,1.6-7.27s-.53-5.16-1.6-7.27c-1.07-2.11-2.55-3.77-4.44-4.96-1.89-1.19-4.08-1.79-6.56-1.79s-4.59.6-6.45,1.79c-1.86,1.19-3.33,2.83-4.4,4.92-1.07,2.09-1.6,4.53-1.6,7.31s.53,5.16,1.6,7.27c1.07,2.11,2.56,3.77,4.48,4.96,1.91,1.19,4.09,1.79,6.53,1.79Z"/>
    <path class="cls-1" d="M309.08,75.36v-37.29h5.59l.3,5.59c1.24-2.09,2.86-3.69,4.85-4.81,1.99-1.12,4.3-1.68,6.94-1.68,2.93,0,5.48.58,7.65,1.75,2.16,1.17,3.85,3.02,5.07,5.56,1.22,2.54,1.8,5.87,1.75,9.99v20.89h-5.97v-19.09c0-3.68-.42-6.49-1.27-8.43-.85-1.94-2.01-3.27-3.51-3.99-1.49-.72-3.18-1.08-5.07-1.08-3.28,0-5.83,1.16-7.65,3.47-1.82,2.31-2.72,5.58-2.72,9.81v19.32h-5.97Z"/>
    <path class="cls-1" d="M363.3,76.25c-3.63,0-6.84-.83-9.62-2.5-2.78-1.67-4.96-3.97-6.53-6.9-1.57-2.93-2.35-6.31-2.35-10.14s.78-7.21,2.35-10.14c1.57-2.93,3.73-5.23,6.49-6.9,2.76-1.67,5.93-2.5,9.51-2.5s6.49.86,9.03,2.57,4.5,4.12,5.89,7.2c1.39,3.08,2.09,6.71,2.09,10.89h-29.31c.25,4.08,1.54,7.26,3.88,9.55,2.34,2.29,5.3,3.43,8.88,3.43,2.64,0,4.86-.62,6.68-1.86,1.81-1.24,3.22-2.88,4.21-4.92l5.15,2.61c-.94,1.94-2.2,3.63-3.77,5.07-1.57,1.44-3.41,2.56-5.52,3.36-2.11.8-4.46,1.19-7.05,1.19ZM351.3,52.83h22.45c-.15-2.14-.71-3.98-1.68-5.52-.97-1.54-2.23-2.73-3.77-3.58-1.54-.84-3.28-1.27-5.22-1.27s-3.7.41-5.44,1.23c-1.74.82-3.18,2.01-4.33,3.58-1.14,1.57-1.81,3.42-2.01,5.56Z"/>
    <path class="cls-1" d="M154.41,28.05c-1.05.81-2.59,2.22-3.47,3.28-.32.39-.91.37-1.22-.01-.83-1.02-2.24-2.44-3.27-3.27-.39-.31-.4-.91-.01-1.22,1.06-.88,2.47-2.42,3.28-3.47.31-.41.92-.41,1.24,0,.87,1.08,2.38,2.6,3.47,3.47.4.32.4.93,0,1.24Z"/>
  </g>
  <g>
    <path class="cls-1" d="M78.17,14.76c-.62,1.98-1.44,3.91-2.46,5.77-1.43,2.6-3.24,5.05-5.45,7.25-9.21,9.21-22.63,11.65-34.07,7.31,4.34,11.44,1.9,24.86-7.31,34.07-1.97,1.97-4.13,3.63-6.42,4.97-1.91,1.13-3.92,2.04-5.98,2.73-3.24-6.04-4.42-14.7-4.42-26.87,0-14.83,1.74-24.45,6.86-30.47.52-.61,1.07-1.19,1.66-1.72,5.99-5.47,15.73-7.31,30.99-7.31,11.99,0,20.56,1.14,26.59,4.27Z"/>
    <path class="cls-1" d="M91.09,50c0,15.13-1.81,24.83-7.17,30.83-.63.71-1.31,1.36-2.04,1.97-6.04,5-15.61,6.71-30.3,6.71-11.81,0-20.31-1.1-26.32-4.13.68-1.98,1.57-3.91,2.65-5.76,1.35-2.3,3.02-4.47,4.99-6.44,9.21-9.21,22.63-11.65,34.07-7.31-4.33-11.44-1.9-24.86,7.31-34.07,2.21-2.21,4.67-4.04,7.28-5.47,1.78-.97,3.63-1.77,5.53-2.38,2.93,6,4,14.42,4,26.05Z"/>
  </g>
</svg>