<?xml version="1.0" encoding="UTF-8"?>
<svg id="Layer_1" data-name="Layer 1" xmlns="http://www.w3.org/2000/svg" viewBox="0 0 150 150">
  <defs>
    <style>
      .cls-1 {
        fill: #ee3825;
      }
    </style>
  </defs>
  <path class="cls-1" d="M121.25,13.71c-1.08,3.45-2.51,6.81-4.28,10.03-2.48,4.53-5.64,8.78-9.48,12.61-16.02,16.02-39.36,20.26-59.25,12.72,7.54,19.89,3.3,43.23-12.71,59.25-3.42,3.42-7.18,6.31-11.16,8.65-3.33,1.96-6.81,3.55-10.4,4.75-5.64-10.51-7.68-25.56-7.68-46.73,0-25.8,3.03-42.51,11.92-52.99.9-1.06,1.86-2.06,2.89-3,10.41-9.51,27.35-12.72,53.9-12.72,20.84,0,35.76,1.98,46.25,7.43Z"/>
  <path class="cls-1" d="M143.72,75c0,26.32-3.15,43.18-12.47,53.62-1.09,1.23-2.27,2.37-3.54,3.42-10.5,8.7-27.14,11.68-52.7,11.68-20.53,0-35.32-1.92-45.78-7.19,1.19-3.45,2.72-6.81,4.61-10.01,2.35-4,5.24-7.77,8.68-11.2,16.02-16.02,39.36-20.26,59.25-12.72-7.54-19.89-3.3-43.23,12.72-59.25,3.85-3.85,8.12-7.02,12.66-9.51,3.1-1.69,6.32-3.08,9.62-4.14,5.09,10.43,6.95,25.07,6.95,45.3Z"/>
</svg>